<svg width="443" height="498" viewBox="0 0 443 498" fill="none" xmlns="http://www.w3.org/2000/svg">
<path d="M115.386 157.4C108.879 157.4 103.673 153.011 102.371 145.696L91.9602 103.268H47.7114C39.902 103.268 34.6966 95.9536 34.6966 88.6388C34.6966 81.324 41.2035 74.0082 47.7114 74.0082H102.372C108.879 74.0082 114.085 78.3977 115.387 85.7125L128.401 139.844C129.703 147.159 125.798 154.475 119.291 157.4C117.989 157.4 116.687 157.4 115.386 157.4Z" fill="black"/>
<g clip-path="url(#clip0)">
<path d="M398.465 289.973C398.465 298.666 396.109 306.87 391.396 314.586C386.824 322.204 380.447 328.893 372.271 334.656C364.233 340.321 354.738 344.813 343.789 348.134C332.979 351.357 321.406 352.969 309.071 352.969C297.984 352.969 287.311 351.601 277.056 348.867C266.938 346.132 257.792 342.128 249.614 336.853C241.437 342.128 232.22 346.132 221.964 348.867C211.708 351.601 201.036 352.969 189.949 352.969C177.614 352.969 165.972 351.357 155.023 348.134C144.212 344.813 134.718 340.321 126.541 334.656C118.503 328.893 112.128 322.204 107.415 314.586C102.842 306.87 100.555 298.666 100.555 289.973V139.957H160.22V289.973C160.22 292.903 160.982 295.687 162.507 298.324C164.031 300.863 166.11 303.109 168.744 305.063C171.516 306.919 174.703 308.384 178.307 309.458C181.91 310.532 185.791 311.069 189.949 311.069C194.106 311.069 197.987 310.532 201.591 309.458C205.194 308.384 208.312 306.919 210.946 305.063C213.718 303.109 215.866 300.863 217.39 298.324C218.915 295.687 219.677 292.903 219.677 289.973V139.957H279.342V289.973C279.342 292.903 280.104 295.687 281.629 298.324C283.154 300.863 285.233 303.109 287.866 305.063C290.638 306.919 293.825 308.384 297.429 309.458C301.032 310.532 304.914 311.069 309.071 311.069C313.229 311.069 317.109 310.532 320.714 309.458C324.317 308.384 327.435 306.919 330.068 305.063C332.84 303.109 334.988 300.863 336.512 298.324C338.176 295.687 339.007 292.903 339.007 289.973V139.957H398.465V289.973Z" fill="#27AE60"/>
</g>
<path d="M174.817 434.048C152.064 434.048 133.448 414.021 133.448 389.543C133.448 365.065 152.064 345.038 174.817 345.038C197.571 345.038 216.187 365.065 216.187 389.543C216.187 414.021 197.571 434.048 174.817 434.048ZM174.817 369.515C163.441 369.515 155.167 379.529 155.167 390.655C155.167 402.894 164.476 411.795 174.817 411.795C185.159 411.795 194.468 401.781 194.468 390.655C194.468 378.416 186.194 369.515 174.817 369.515Z" fill="black"/>
<path d="M326.949 434.048C304.196 434.048 285.58 414.021 285.58 389.543C285.58 365.065 304.196 345.038 326.949 345.038C349.702 345.038 368.318 365.065 368.318 389.543C368.318 414.021 349.702 434.048 326.949 434.048ZM326.949 369.515C315.573 369.515 307.299 379.529 307.299 390.655C307.299 402.894 316.607 411.795 326.949 411.795C337.291 411.795 346.599 401.781 346.599 390.655C346.6 378.416 338.326 369.515 326.949 369.515Z" fill="black"/>
<defs>
<clipPath id="clip0">
<rect width="298.035" height="214.024" fill="white" transform="translate(100.531 139.015)"/>
</clipPath>
</defs>
</svg>
